<svg xmlns="http://www.w3.org/2000/svg" width="60" height="60" viewBox="0 0 60 60" fill="none">
  <path d="M52.0313 34.6488L51.9762 31.5937C50.4279 31.5574 48.8868 31.3718 47.3742 31.0394L46.7883 33.0726C46.7324 33.2842 46.6347 33.4824 46.5011 33.6557C46.3674 33.829 46.2004 33.9737 46.01 34.0815C45.8195 34.1892 45.6094 34.2578 45.3921 34.2831C45.1747 34.3085 44.9545 34.2901 44.7443 34.229C44.5342 34.168 44.3384 34.0655 44.1684 33.9276C43.9985 33.7897 43.8579 33.6193 43.7548 33.4262C43.6517 33.2332 43.5883 33.0215 43.5683 32.8036C43.5483 32.5857 43.5721 32.366 43.6383 32.1574L44.2242 30.1207C42.7535 29.5813 41.3387 28.9003 39.9996 28.0875L38.7762 29.8183C38.525 30.1737 38.143 30.4148 37.7141 30.4885C37.2853 30.5623 36.8447 30.4626 36.4893 30.2115C36.1339 29.9603 35.8928 29.5783 35.819 29.1494C35.7453 28.7206 35.845 28.28 36.0961 27.9246L37.316 26.1984C36.0256 25.1514 34.8474 23.9732 33.8004 22.6828L32.0754 23.9062C31.8994 24.0305 31.7007 24.119 31.4905 24.1666C31.2803 24.2141 31.0629 24.2198 30.8505 24.1833C30.6381 24.1467 30.4351 24.0688 30.2528 23.9538C30.0706 23.8388 29.9128 23.689 29.7885 23.513C29.6641 23.3371 29.5757 23.1383 29.5281 22.9282C29.4806 22.718 29.4749 22.5005 29.5114 22.2882C29.5852 21.8593 29.8262 21.4773 30.1816 21.2261L31.909 20.005C31.094 18.6661 30.4119 17.2508 29.8723 15.7792L27.8426 16.3652C27.6357 16.4253 27.419 16.444 27.2048 16.4204C26.9906 16.3967 26.7832 16.3311 26.5944 16.2273C26.4056 16.1235 26.2391 15.9835 26.1044 15.8153C25.9697 15.6472 25.8695 15.4541 25.8094 15.2472C25.7493 15.0403 25.7305 14.8236 25.7542 14.6094C25.7778 14.3953 25.8435 14.1879 25.9473 13.9991C26.0511 13.8103 26.1911 13.6438 26.3592 13.5091C26.5274 13.3744 26.7204 13.2741 26.9273 13.214L28.9547 12.6281C28.6801 11.3709 28.5065 10.0938 28.4355 8.80894C28.4223 8.57456 28.4129 8.34019 28.4074 8.10581L26.2723 8.06714C25.8424 8.05915 25.4329 7.88279 25.1318 7.57597C24.8307 7.26915 24.662 6.85641 24.6621 6.42651C20.3418 7.38412 16.3637 9.49977 13.1544 12.5465C9.94518 15.5933 7.62588 19.4563 6.44531 23.721C6.9152 23.7504 7.35686 23.9554 7.68253 24.2954C8.00819 24.6354 8.19404 25.0855 8.20313 25.5562L8.25469 28.4191C8.43984 28.425 8.625 28.432 8.80898 28.4425C10.0938 28.5135 11.371 28.6871 12.6281 28.9617L13.2141 26.9343C13.3354 26.5165 13.6178 26.1639 13.9991 25.9543C14.3804 25.7446 14.8294 25.695 15.2473 25.8164C15.6651 25.9377 16.0177 26.2201 16.2273 26.6014C16.437 26.9827 16.4866 27.4317 16.3652 27.8496L15.7793 29.8792C17.2485 30.4192 18.6614 31.1014 19.998 31.916L21.2109 30.1886C21.4621 29.8332 21.8441 29.5921 22.273 29.5184C22.7018 29.4447 23.1425 29.5443 23.4979 29.7955C23.8533 30.0466 24.0943 30.4286 24.1681 30.8575C24.2418 31.2864 24.1421 31.727 23.891 32.0824L22.6734 33.8085C23.3186 34.3321 23.9362 34.8887 24.5238 35.4761C25.1115 36.0635 25.6681 36.6811 26.1914 37.3265L27.9176 36.1066C28.2733 35.8555 28.7142 35.7559 29.1433 35.8299C29.5724 35.9038 29.9545 36.1452 30.2057 36.5009C30.4568 36.8566 30.5563 37.2975 30.4824 37.7266C30.4084 38.1557 30.167 38.5379 29.8113 38.789L28.0816 40.0113C28.895 41.35 29.5767 42.7644 30.1172 44.2347L32.1539 43.6429C32.5718 43.5216 33.0207 43.5712 33.402 43.7808C33.7833 43.9905 34.0657 44.343 34.1871 44.7609C34.3085 45.1788 34.2589 45.6277 34.0492 46.009C33.8396 46.3903 33.487 46.6727 33.0691 46.7941L31.0359 47.38C31.3595 48.8548 31.5439 50.3567 31.5867 51.866L33.7277 51.9046C34.2248 51.9136 34.698 52.1196 35.0433 52.4773C35.3885 52.8351 35.5775 53.3154 35.5688 53.8125C35.568 53.8591 35.5649 53.9056 35.5594 53.9519C39.8849 52.9219 43.8463 50.7284 47.0147 47.6087C50.1831 44.489 52.4378 40.5621 53.5348 36.2531C53.13 36.2192 52.7522 36.0364 52.4745 35.7401C52.1968 35.4437 52.0388 35.0549 52.0313 34.6488Z" fill="#DE0E0E"/>
  <path d="M35.3309 6.58591C35.3248 7.01676 35.1493 7.42788 34.8426 7.73048C34.5358 8.03307 34.1223 8.20284 33.6915 8.2031H33.6622L31.6922 8.16794C31.6981 8.32146 31.704 8.47498 31.7122 8.62849C31.77 9.66479 31.9047 10.6954 32.1153 11.7117L34.0243 11.1562C34.4286 11.0719 34.8498 11.1432 35.2038 11.3559C35.5578 11.5685 35.8187 11.9068 35.9342 12.3033C36.0498 12.6998 36.0115 13.1253 35.8271 13.4948C35.6427 13.8643 35.3258 14.1508 34.9395 14.2969L33.0329 14.8511C33.4591 15.9758 33.9817 17.0615 34.595 18.0961L36.2168 16.95C36.5722 16.6988 37.0129 16.5992 37.4417 16.6729C37.8706 16.7467 38.2526 16.9877 38.5038 17.3431C38.7549 17.6985 38.8545 18.1391 38.7808 18.568C38.7071 18.9969 38.466 19.3789 38.1106 19.6301L36.4864 20.7773C36.8965 21.2719 37.3309 21.748 37.7895 22.2058C38.2465 22.664 38.727 23.0965 39.2192 23.5066L40.3653 21.8847C40.4903 21.7088 40.6488 21.5591 40.8317 21.4444C41.0145 21.3297 41.2182 21.2521 41.431 21.2161C41.6439 21.18 41.8618 21.1863 42.0722 21.2345C42.2826 21.2827 42.4815 21.3718 42.6575 21.4969C42.8335 21.6219 42.9831 21.7804 43.0978 21.9632C43.2125 22.1461 43.2901 22.3498 43.3261 22.5626C43.3622 22.7755 43.3559 22.9933 43.3077 23.2038C43.2596 23.4142 43.1704 23.6131 43.0454 23.789L41.9016 25.4062C42.9361 26.019 44.0213 26.5416 45.1454 26.9683L45.7032 25.0605C45.8245 24.6427 46.1069 24.2901 46.4882 24.0804C46.8695 23.8708 47.3185 23.8212 47.7364 23.9426C48.1543 24.0639 48.5068 24.3463 48.7164 24.7276C48.9261 25.1089 48.9757 25.5579 48.8543 25.9758L48.3 27.8812C49.4942 28.1297 50.7078 28.2729 51.927 28.309L51.9083 27.2543C51.9007 26.8193 52.0662 26.3992 52.3684 26.0863C52.6706 25.7733 53.0846 25.5932 53.5196 25.5855H53.5489C53.6507 25.5863 53.7523 25.5961 53.8524 25.6148C52.9589 20.9685 50.7324 16.6827 47.4445 13.2802C44.1567 9.87776 39.9497 7.50572 35.3368 6.45349C35.3297 6.50037 35.3321 6.54255 35.3309 6.58591ZM24.4266 53.6191C24.4355 53.122 24.6415 52.6488 24.9993 52.3036C25.3571 51.9583 25.8373 51.7693 26.3344 51.7781L28.2985 51.8121C28.2564 50.6323 28.1145 49.4582 27.8743 48.3023L25.9688 48.8554C25.7618 48.9155 25.545 48.9343 25.3308 48.9106C25.1166 48.8869 24.9091 48.8212 24.7202 48.7174C24.5314 48.6135 24.3648 48.4735 24.2301 48.3052C24.0954 48.137 23.9951 47.9439 23.935 47.7369C23.8749 47.5299 23.8562 47.3131 23.8799 47.0989C23.9036 46.8847 23.9692 46.6772 24.0731 46.4883C24.1769 46.2995 24.317 46.1329 24.4852 45.9982C24.6535 45.8635 24.8466 45.7632 25.0536 45.7031L26.9532 45.1523C26.527 44.028 26.0043 42.9428 25.3911 41.9086L23.7739 43.0523C23.5979 43.1767 23.3992 43.2651 23.189 43.3127C22.9788 43.3602 22.7614 43.3659 22.549 43.3294C22.3366 43.2929 22.1335 43.2149 21.9513 43.0999C21.7691 42.9849 21.6113 42.8351 21.487 42.6592C21.3626 42.4832 21.2742 42.2844 21.2266 42.0743C21.1791 41.8641 21.1734 41.6466 21.2099 41.4343C21.2464 41.2219 21.3244 41.0188 21.4394 40.8366C21.5544 40.6544 21.7042 40.4966 21.8801 40.3722L23.502 39.2261C23.0918 38.7316 22.6594 38.2535 22.2012 37.7965C21.743 37.3394 21.2637 36.9035 20.7727 36.4933L19.6254 38.1176C19.3743 38.473 18.9923 38.714 18.5634 38.7878C18.1345 38.8615 17.6939 38.7618 17.3385 38.5107C16.9831 38.2596 16.742 37.8776 16.6683 37.4487C16.5946 37.0198 16.6942 36.5792 16.9454 36.2238L18.0915 34.6019C17.0571 33.9882 15.9714 33.4655 14.8465 33.0398L14.2969 34.9465C14.1756 35.3645 13.8931 35.7172 13.5117 35.9269C13.1303 36.1367 12.6812 36.1864 12.2631 36.065C11.8451 35.9436 11.4924 35.6612 11.2826 35.2798C11.0729 34.8984 11.0232 34.4493 11.1446 34.0312L11.6989 32.1222C10.6827 31.9111 9.65203 31.7763 8.61567 31.7191C8.51138 31.7133 8.40591 31.7097 8.30161 31.7051L8.32036 32.9461C8.32914 33.4432 8.14013 33.9234 7.79489 34.2812C7.44965 34.6389 6.97645 34.8449 6.47935 34.8539H6.44536C6.28957 34.8532 6.13447 34.8331 5.98364 34.7941C6.86678 39.4428 9.0839 43.7339 12.3645 47.1439C15.645 50.5539 19.8472 52.9354 24.4583 53.9976C24.4347 53.8729 24.4241 53.746 24.4266 53.6191Z" fill="#DE0E0E"/>
</svg>