<svg xmlns="http://www.w3.org/2000/svg" width="60" height="60" viewBox="0 0 60 60" fill="none">
  <path d="M22.5 49.0375C21.7916 49.0375 21.1974 48.7983 20.7174 48.32C20.2375 47.8417 19.9983 47.2475 20 46.5375V40.9625H40.1924V46.5375C40.1924 47.2458 39.9524 47.84 39.4724 48.32C38.9924 48.8 38.3991 49.0392 37.6924 49.0375H22.5ZM44.425 18.4625V27.405C44.425 27.53 44.3833 27.6967 44.2999 27.905L42.7124 35.5775C42.5874 36.1342 42.3108 36.5942 41.8825 36.9575C41.4541 37.3192 40.9541 37.5 40.3825 37.5H19.5225C18.9508 37.5 18.4508 37.3192 18.0225 36.9575C17.5958 36.5942 17.32 36.1342 17.195 35.5775L15.7 28C15.6166 27.7917 15.575 27.625 15.575 27.5V13.655C15.575 12.505 15.96 11.5442 16.73 10.7725C17.5016 10.0008 18.4683 9.61499 19.63 9.61499H36.5199C37.6816 9.61499 38.6483 10.0008 39.4199 10.7725C40.1899 11.5425 40.5749 12.5033 40.5749 13.655V18.4625C40.5749 17.9175 40.7591 17.4608 41.1275 17.0925C41.4974 16.7225 41.9558 16.5375 42.5024 16.5375C43.0474 16.5375 43.5033 16.7225 43.87 17.0925C44.2366 17.4592 44.4199 17.9158 44.4199 18.4625H44.425ZM24.3249 24.4225H31.8074C32.3358 24.4225 32.7758 24.2475 33.1275 23.8975C33.4775 23.5475 33.6525 23.1142 33.6525 22.5975V22.02C33.6525 21.4467 33.4591 20.9667 33.0725 20.58C32.6858 20.1933 32.2066 20 31.635 20H24.5199C23.9466 20 23.4666 20.1933 23.08 20.58C22.6933 20.9667 22.5 21.4467 22.5 22.02V22.595C22.5 23.1133 22.675 23.5475 23.025 23.8975C23.375 24.2475 23.8083 24.4225 24.3249 24.4225Z" fill="white"/>
</svg>