<svg xmlns="http://www.w3.org/2000/svg" width="20" height="20" viewBox="0 0 20 20" fill="none">
  <path d="M16.6669 9.16591H18.3335C18.3335 4.89091 15.106 1.66675 10.8252 1.66675V3.33341C14.2102 3.33341 16.6669 5.78591 16.6669 9.16591Z" fill="white"/>
  <path d="M10.8336 6.66678C12.5861 6.66678 13.3336 7.41428 13.3336 9.16678H15.0002C15.0002 6.47928 13.5211 5.00012 10.8336 5.00012V6.66678ZM13.6852 11.2026C13.5251 11.0571 13.3147 10.9795 13.0984 10.9861C12.8821 10.9928 12.6769 11.0833 12.5261 11.2385L10.5319 13.2893C10.0519 13.1976 9.0869 12.8968 8.09357 11.906C7.10024 10.9118 6.7994 9.94428 6.71024 9.46762L8.7594 7.47262C8.91475 7.32189 9.00535 7.11664 9.01204 6.90029C9.01872 6.68394 8.94097 6.47349 8.79524 6.31345L5.71607 2.92762C5.57027 2.76708 5.36763 2.6697 5.1512 2.65617C4.93476 2.64263 4.72157 2.714 4.5569 2.85512L2.74857 4.40595C2.60449 4.55055 2.5185 4.74299 2.5069 4.94678C2.4944 5.15512 2.25607 10.0901 6.08274 13.9185C9.42107 17.256 13.6027 17.5001 14.7544 17.5001C14.9227 17.5001 15.0261 17.4951 15.0536 17.4935C15.2573 17.482 15.4497 17.3957 15.5936 17.251L17.1436 15.4418C17.2848 15.2772 17.3563 15.0641 17.3429 14.8477C17.3295 14.6312 17.2323 14.4285 17.0719 14.2826L13.6852 11.2026Z" fill="white"/>
</svg>