<svg xmlns="http://www.w3.org/2000/svg" width="60" height="60" viewBox="0 0 60 60" fill="none">
  <mask id="mask0_9_239" style="mask-type:luminance" maskUnits="userSpaceOnUse" x="5" y="5" width="50" height="50">
    <path d="M7.5 41.25V48.75C7.5 49.7446 7.89509 50.6984 8.59835 51.4016C9.30161 52.1049 10.2554 52.5 11.25 52.5H18.75M41.25 52.5H48.75C49.7446 52.5 50.6984 52.1049 51.4016 51.4016C52.1049 50.6984 52.5 49.7446 52.5 48.75V41.25M52.5 18.75V11.25C52.5 10.2554 52.1049 9.30161 51.4016 8.59835C50.6984 7.89509 49.7446 7.5 48.75 7.5H41.25M7.5 18.75V11.25C7.5 10.2554 7.89509 9.30161 8.59835 8.59835C9.30161 7.89509 10.2554 7.5 11.25 7.5H18.75" stroke="white" stroke-width="4" stroke-linecap="round" stroke-linejoin="round"/>
    <path d="M42.4998 30L29.9998 42.5L17.4998 30C16.2498 28.75 15.6248 26.25 17.4998 23.75C19.3748 21.25 23.1248 21.25 24.9998 22.5C26.8748 23.75 27.4998 25 29.9998 25C32.4998 25 33.1248 23.75 34.9998 22.5C36.8748 21.25 40.6248 21.25 42.4998 23.75C44.3748 26.25 43.7498 28.75 42.4998 30Z" fill="white" stroke="white" stroke-width="4" stroke-linecap="round" stroke-linejoin="round"/>
  </mask>
  <g mask="url(#mask0_9_239)">
    <path d="M0 0H60V60H0V0Z" fill="white"/>
  </g>
</svg>