<svg xmlns="http://www.w3.org/2000/svg" width="20" height="20" viewBox="0 0 20 20" fill="none">
  <path d="M10.0003 9.58341C9.44779 9.58341 8.91789 9.36392 8.52719 8.97322C8.13649 8.58252 7.91699 8.05262 7.91699 7.50008C7.91699 6.94755 8.13649 6.41764 8.52719 6.02694C8.91789 5.63624 9.44779 5.41675 10.0003 5.41675C10.5529 5.41675 11.0828 5.63624 11.4735 6.02694C11.8642 6.41764 12.0837 6.94755 12.0837 7.50008C12.0837 7.77367 12.0298 8.04458 11.9251 8.29734C11.8204 8.5501 11.6669 8.77977 11.4735 8.97322C11.28 9.16668 11.0503 9.32013 10.7976 9.42483C10.5448 9.52953 10.2739 9.58341 10.0003 9.58341ZM10.0003 1.66675C8.45323 1.66675 6.9695 2.28133 5.87554 3.37529C4.78157 4.46925 4.16699 5.95299 4.16699 7.50008C4.16699 11.8751 10.0003 18.3334 10.0003 18.3334C10.0003 18.3334 15.8337 11.8751 15.8337 7.50008C15.8337 5.95299 15.2191 4.46925 14.1251 3.37529C13.0312 2.28133 11.5474 1.66675 10.0003 1.66675Z" fill="white"/>
</svg>