<svg xmlns="http://www.w3.org/2000/svg" width="20" height="20" viewBox="0 0 20 20" fill="none">
  <path d="M3.33317 16.6668C2.87484 16.6668 2.48234 16.5035 2.15567 16.1768C1.82901 15.8502 1.66595 15.4579 1.66651 15.0002V5.00016C1.66651 4.54183 1.82984 4.14933 2.15651 3.82266C2.48317 3.496 2.87539 3.33294 3.33317 3.3335H16.6665C17.1248 3.3335 17.5173 3.49683 17.844 3.8235C18.1707 4.15016 18.3337 4.54239 18.3332 5.00016V15.0002C18.3332 15.4585 18.1698 15.851 17.8432 16.1777C17.5165 16.5043 17.1243 16.6674 16.6665 16.6668H3.33317ZM9.99984 10.8335L16.6665 6.66683V5.00016L9.99984 9.16683L3.33317 5.00016V6.66683L9.99984 10.8335Z" fill="white"/>
</svg>