<svg xmlns="http://www.w3.org/2000/svg" width="60" height="60" viewBox="0 0 60 60" fill="none">
  <path d="M19.875 26.5876C21.184 25.2286 22.7537 24.1479 24.4903 23.4101C26.2269 22.6723 28.0945 22.2926 29.9813 22.2938C33.6563 22.2938 37.3125 23.7188 40.0875 26.5876C45.6563 32.3063 45.6563 41.6063 40.0875 47.3251C38.7798 48.6856 37.2103 49.7674 35.4734 50.5053C33.7366 51.2432 31.8684 51.622 29.9813 51.6188C26.175 51.6188 22.575 50.1001 19.875 47.3251C17.1756 44.5508 15.674 40.8271 15.6938 36.9563C15.6938 33.0376 17.175 29.3626 19.875 26.5876ZM32.6813 32.5876L31.125 29.3626C30.6563 28.3876 29.3063 28.3876 28.8 29.3626L27.2438 32.5876C27.0563 32.9813 26.7 33.2438 26.2875 33.3001L22.8188 33.8251C21.7875 33.9751 21.375 35.2876 22.125 36.0376L24.525 38.4376C24.8813 38.7938 25.0125 39.3188 24.8438 39.8063L23.7375 43.0126C23.3625 44.0813 24.4313 45.0938 25.4438 44.6438L29.4563 42.8438C29.775 42.6938 30.15 42.6938 30.4688 42.8438L34.4813 44.6438C35.5125 45.0938 36.5625 44.0813 36.1875 43.0126L35.0813 39.8063C35.0045 39.5708 34.9936 39.3188 35.0498 39.0775C35.1059 38.8362 35.2271 38.6149 35.4 38.4376L37.8 36.0376C38.5688 35.2876 38.1375 33.9751 37.1063 33.8251L33.6375 33.3001C33.4325 33.2672 33.2385 33.1852 33.072 33.0611C32.9055 32.9371 32.7715 32.7746 32.6813 32.5876Z" fill="white"/>
  <path d="M10.7025 3.7688L10.7082 3.77817H22.3988C23.655 3.77817 24.7838 4.4063 25.4025 5.4938L30 13.0538L34.5882 5.51255C35.2257 4.42505 36.3694 3.7688 37.6257 3.7688H41.4507L41.445 3.77817H49.9969C52.6969 3.77817 54.3882 6.6938 53.0382 9.07505C50.5757 13.4503 47.0885 17.1628 42.8757 19.8938C42.2138 20.4075 41.4825 20.8125 40.7063 21.0994C45.6 24.5832 48.8063 30.3863 48.8063 36.9563C48.8063 47.6119 40.3763 56.25 29.9813 56.25C19.5825 56.25 11.1563 47.6119 11.1563 36.9563C11.1563 30.3732 14.3719 24.5588 19.2825 21.0769C18.5021 20.7898 17.7704 20.3845 17.1132 19.875C12.9132 17.1375 9.42566 13.425 6.95066 9.0563C5.61941 6.6938 7.32566 3.7688 10.0444 3.7688H10.7007H10.7025ZM23.6963 18.765C24.7868 18.3686 25.9125 18.0767 27.0582 17.8932L27.3282 17.4507L19.7569 5.62505H11.7882C14.7969 10.5274 18.6725 14.8414 23.2257 18.3563C23.3813 18.4969 23.5369 18.6319 23.6963 18.765ZM48.2663 5.62505H40.26L32.4375 17.8257C33.7563 18.0014 35.0521 18.3202 36.3019 18.7763C36.4667 18.6405 36.628 18.5004 36.7857 18.3563C41.3536 14.8446 45.2439 10.5305 48.2663 5.62505ZM18.3 48.9563C19.8144 50.5307 21.6315 51.7826 23.6422 52.6364C25.6529 53.4903 27.8155 53.9287 30 53.925C34.4063 53.925 38.5688 52.1625 41.7188 48.9563C48.1688 42.3375 48.1688 31.575 41.7188 24.9563C40.1995 23.3862 38.3799 22.1377 36.3684 21.285C34.3568 20.4323 32.1942 19.9929 30.0094 19.9929C27.8246 19.9929 25.662 20.4323 23.6505 21.285C21.6389 22.1377 19.8193 23.3862 18.3 24.9563C15.1675 28.1629 13.423 32.4736 13.4438 36.9563C13.4438 41.4938 15.1688 45.75 18.3 48.9563Z" fill="white"/>
</svg>