<svg xmlns="http://www.w3.org/2000/svg" width="60" height="60" viewBox="0 0 60 60" fill="none">
  <g clip-path="url(#clip0_9_278)">
    <path d="M41.25 10.95C44.0114 10.95 46.25 8.71138 46.25 5.94995C46.25 3.18853 44.0114 0.949951 41.25 0.949951C38.4886 0.949951 36.25 3.18853 36.25 5.94995C36.25 8.71138 38.4886 10.95 41.25 10.95Z" fill="#DE0E0E"/>
    <path d="M59.9999 27.2V17.95L47.5249 12.675C45.0749 11.65 42.2249 12.5 40.7499 14.7L38.2499 18.7C36.5749 21.65 33.4749 23.85 29.7249 24.5L29.8749 24.65C31.5999 26.375 33.6749 27.325 36.0249 27.575C38.0249 26.525 39.8249 25.125 41.2499 23.475L42.7499 30.975L39.8499 33.725L37.4999 35.95V52.2C37.4999 53.575 38.6249 54.7 39.9999 54.7C41.3749 54.7 42.4999 53.575 42.4999 52.2V39.7L47.7499 34.7L51.7999 52.675C52.0749 53.85 53.1249 54.7 54.3499 54.7C55.9999 54.7 57.2249 53.2 56.8999 51.6L52.0499 27.2L50.4999 19.45L54.9999 21.2V27.2C54.9999 28.575 56.1249 29.7 57.4999 29.7C58.8749 29.7 59.9999 28.575 59.9999 27.2ZM25.7249 20.225C26.2749 20.6 26.8999 20.825 27.5249 20.95C27.8499 21 28.1499 21.05 28.4749 21.05C28.7999 21.05 29.1249 21.025 29.4249 20.95C29.7499 20.9 30.0499 20.8 30.3499 20.675C30.9499 20.425 31.5249 20.075 31.9999 19.575C33.2249 18.35 33.6749 16.65 33.3749 15.075C33.1999 14.15 32.7499 13.225 31.9999 12.5C31.5249 12.025 30.9499 11.65 30.3499 11.4C30.0499 11.275 29.7499 11.175 29.4249 11.125C29.0999 11.075 28.7999 11.025 28.4749 11.025C28.1749 11.025 27.8999 11.05 27.5999 11.1C27.2499 11.15 26.8999 11.25 26.5749 11.375C25.9999 11.65 25.4249 12.025 24.9499 12.5C24.1999 13.225 23.7499 14.15 23.5749 15.075C23.2749 16.65 23.7249 18.35 24.9499 19.575C25.1749 19.825 25.4499 20.025 25.7249 20.225Z" fill="#DE0E0E"/>
    <path d="M28.1 26.4L23.1 21.4C22.85 21.15 22.6 20.95 22.325 20.75C21.7783 20.3977 21.166 20.1596 20.525 20.05C20.2 19.975 19.9 19.95 19.575 19.95C18.3 19.95 17.025 20.45 16.05 21.425L7.69997 29.775C6.67497 30.8 6.14997 32.225 6.24997 33.625C6.24997 34.075 6.34997 34.55 6.52497 35L9.19997 42.375L1.89997 49.675C1.66852 49.9064 1.48492 50.1812 1.35966 50.4836C1.23439 50.786 1.16992 51.1101 1.16992 51.4375C1.16992 51.7648 1.23439 52.0889 1.35966 52.3913C1.48492 52.6937 1.66852 52.9685 1.89997 53.2C2.36742 53.6674 3.00141 53.93 3.66247 53.93C3.9898 53.93 4.31392 53.8655 4.61633 53.7403C4.91874 53.615 5.19352 53.4314 5.42497 53.2L14.275 44.35V38.8L17.5 41.875V52.2C17.5 53.575 18.625 54.7 20 54.7C21.375 54.7 22.5 53.575 22.5 52.2V39.7L17.2 34.4L23.1 28.5L24.875 30.275C27.425 32.775 30.575 34.5 34.35 35.125C35.95 35.4 37.375 34 37.25 32.375C37.175 31.175 36.25 30.2 35.075 30.025C32.25 29.575 29.925 28.225 28.1 26.4Z" fill="#DE0E0E"/>
  </g>
  <defs>
    <clipPath id="clip0_9_278">
      <rect width="60" height="60" fill="white"/>
    </clipPath>
  </defs>
</svg>