<svg xmlns="http://www.w3.org/2000/svg" width="60" height="60" viewBox="0 0 60 60" fill="none">
  <g clip-path="url(#clip0_9_256)">
    <path d="M41.25 10.95C44.0114 10.95 46.25 8.71138 46.25 5.94995C46.25 3.18853 44.0114 0.949951 41.25 0.949951C38.4886 0.949951 36.25 3.18853 36.25 5.94995C36.25 8.71138 38.4886 10.95 41.25 10.95Z" fill="white"/>
    <path d="M60 27.2V17.95L47.525 12.675C45.075 11.65 42.225 12.5 40.75 14.7L38.25 18.7C36.575 21.65 33.475 23.85 29.725 24.5L29.875 24.65C31.6 26.375 33.675 27.325 36.025 27.575C38.025 26.525 39.825 25.125 41.25 23.475L42.75 30.975L39.85 33.725L37.5 35.95V52.2C37.5 53.575 38.625 54.7 40 54.7C41.375 54.7 42.5 53.575 42.5 52.2V39.7L47.75 34.7L51.8 52.675C52.075 53.85 53.125 54.7 54.35 54.7C56 54.7 57.225 53.2 56.9 51.6L52.05 27.2L50.5 19.45L55 21.2V27.2C55 28.575 56.125 29.7 57.5 29.7C58.875 29.7 60 28.575 60 27.2ZM25.725 20.225C26.275 20.6 26.9 20.825 27.525 20.95C27.85 21 28.15 21.05 28.475 21.05C28.8 21.05 29.125 21.025 29.425 20.95C29.75 20.9 30.05 20.8 30.35 20.675C30.95 20.425 31.525 20.075 32 19.575C33.225 18.35 33.675 16.65 33.375 15.075C33.2 14.15 32.75 13.225 32 12.5C31.525 12.025 30.95 11.65 30.35 11.4C30.05 11.275 29.75 11.175 29.425 11.125C29.1 11.075 28.8 11.025 28.475 11.025C28.175 11.025 27.9 11.05 27.6 11.1C27.25 11.15 26.9 11.25 26.575 11.375C26 11.65 25.425 12.025 24.95 12.5C24.2 13.225 23.75 14.15 23.575 15.075C23.275 16.65 23.725 18.35 24.95 19.575C25.175 19.825 25.45 20.025 25.725 20.225Z" fill="white"/>
    <path d="M28.1 26.4L23.1 21.4C22.85 21.15 22.6 20.95 22.325 20.75C21.7783 20.3977 21.166 20.1596 20.525 20.05C20.2 19.975 19.9 19.95 19.575 19.95C18.3 19.95 17.025 20.45 16.05 21.425L7.7 29.775C6.675 30.8 6.15 32.225 6.25 33.625C6.25 34.075 6.35 34.55 6.525 35L9.2 42.375L1.9 49.675C1.66855 49.9064 1.48495 50.1812 1.35969 50.4836C1.23442 50.786 1.16995 51.1101 1.16995 51.4375C1.16995 51.7648 1.23442 52.0889 1.35969 52.3913C1.48495 52.6937 1.66855 52.9685 1.9 53.2C2.36745 53.6674 3.00144 53.93 3.6625 53.93C3.98983 53.93 4.31395 53.8655 4.61636 53.7403C4.91877 53.615 5.19355 53.4314 5.425 53.2L14.275 44.35V38.8L17.5 41.875V52.2C17.5 53.575 18.625 54.7 20 54.7C21.375 54.7 22.5 53.575 22.5 52.2V39.7L17.2 34.4L23.1 28.5L24.875 30.275C27.425 32.775 30.575 34.5 34.35 35.125C35.95 35.4 37.375 34 37.25 32.375C37.175 31.175 36.25 30.2 35.075 30.025C32.25 29.575 29.925 28.225 28.1 26.4Z" fill="white"/>
  </g>
  <defs>
    <clipPath id="clip0_9_256">
      <rect width="60" height="60" fill="white"/>
    </clipPath>
  </defs>
</svg>