<svg xmlns="http://www.w3.org/2000/svg" width="50" height="50" viewBox="0 0 50 50" fill="none">
  <path d="M10.4171 6.25005L10.4171 43.75C10.4182 44.1297 10.523 44.5019 10.7199 44.8265C10.9169 45.151 11.1986 45.4158 11.5349 45.5921C11.8711 45.7685 12.2491 45.8498 12.6281 45.8273C13.0071 45.8049 13.3728 45.6795 13.6858 45.4646L40.7691 26.7146C41.8921 25.9376 41.8921 24.0667 40.7691 23.2876L13.6858 4.53755C13.3734 4.32052 13.0075 4.19325 12.6279 4.16957C12.2483 4.14588 11.8694 4.22669 11.5325 4.40321C11.1955 4.57973 10.9134 4.84521 10.7168 5.17081C10.5201 5.49641 10.4165 5.86968 10.4171 6.25005Z" fill="#DE0E0E"/>
</svg>