<svg xmlns="http://www.w3.org/2000/svg" width="50" height="50" viewBox="0 0 50 50" fill="none">
  <path d="M39.5834 6.25005L39.5834 43.75C39.5822 44.1297 39.4775 44.5019 39.2806 44.8265C39.0836 45.151 38.8018 45.4158 38.4656 45.5921C38.1294 45.7685 37.7514 45.8498 37.3724 45.8273C36.9934 45.8049 36.6277 45.6795 36.3147 45.4646L9.23135 26.7146C8.10843 25.9376 8.10843 24.0667 9.23135 23.2876L36.3147 4.53755C36.6271 4.32052 36.993 4.19325 37.3726 4.16957C37.7522 4.14588 38.1311 4.22669 38.468 4.40321C38.805 4.57973 39.0871 4.84521 39.2837 5.17081C39.4804 5.49641 39.584 5.86968 39.5834 6.25005Z" fill="#DE0E0E"/>
</svg>