<svg xmlns="http://www.w3.org/2000/svg" width="60" height="60" viewBox="0 0 60 60" fill="none">
  <path d="M35.6249 21.5625C37.2937 21.5625 38.925 21.0677 40.3125 20.1405C41.7001 19.2134 42.7815 17.8956 43.4201 16.3539C44.0588 14.8121 44.2258 13.1156 43.9003 11.4789C43.5747 9.84222 42.7711 8.3388 41.5911 7.15879C40.4111 5.97878 38.9077 5.17519 37.271 4.84963C35.6343 4.52407 33.9378 4.69116 32.396 5.32977C30.8543 5.96838 29.5365 7.04984 28.6094 8.43738C27.6823 9.82492 27.1874 11.4562 27.1874 13.125C27.1874 15.3628 28.0764 17.5089 29.6587 19.0912C31.241 20.6736 33.3871 21.5625 35.6249 21.5625ZM35.6249 10.3125C36.1812 10.3125 36.7249 10.4775 37.1875 10.7865C37.65 11.0955 38.0104 11.5348 38.2233 12.0487C38.4362 12.5626 38.4919 13.1281 38.3834 13.6737C38.2748 14.2193 38.007 14.7204 37.6136 15.1137C37.2203 15.5071 36.7192 15.7749 36.1736 15.8835C35.628 15.992 35.0625 15.9363 34.5486 15.7234C34.0347 15.5105 33.5954 15.1501 33.2864 14.6875C32.9774 14.225 32.8124 13.6813 32.8124 13.125C32.8124 12.3791 33.1087 11.6637 33.6362 11.1363C34.1636 10.6088 34.879 10.3125 35.6249 10.3125ZM53.4374 32.2031C53.4375 32.7417 53.2829 33.2689 52.9921 33.7222C52.7012 34.1755 52.2864 34.5358 51.7968 34.7602C50.1801 35.3324 48.4796 35.6318 46.7648 35.6461C43.4835 35.6461 38.7374 34.7508 32.7562 31.193C32.0631 32.8848 31.2591 34.5291 30.3491 36.1148C35.8874 38.1633 44.0624 43.0781 44.0624 54.375C44.0624 55.1209 43.7661 55.8363 43.2386 56.3637C42.7112 56.8912 41.9958 57.1875 41.2499 57.1875C40.504 57.1875 39.7886 56.8912 39.2612 56.3637C38.7337 55.8363 38.4374 55.1209 38.4374 54.375C38.4374 49.9945 36.8085 46.6266 33.4546 44.0766C31.3077 42.4359 28.8726 41.4984 27.0257 40.95C26.8358 41.1844 26.6413 41.4188 26.4398 41.6414C21.7523 47.0016 15.9351 49.7883 9.50616 49.7883C8.743 49.7883 7.98032 49.7499 7.221 49.6734C6.85143 49.6393 6.49227 49.5323 6.16422 49.3587C5.83618 49.1851 5.54574 48.9483 5.30964 48.662C5.07355 48.3756 4.89647 48.0453 4.78861 47.6902C4.68076 47.3351 4.64426 46.9621 4.68122 46.5928C4.71818 46.2235 4.82787 45.8651 5.00397 45.5384C5.18006 45.2117 5.41908 44.9231 5.70725 44.6892C5.99542 44.4553 6.32703 44.2807 6.68297 44.1756C7.03891 44.0704 7.41215 44.0368 7.78116 44.0766C20.039 45.3 25.9405 33.3141 27.8882 28.1977C19.8749 24.0141 14.939 27.8391 14.8851 27.8906C14.3008 28.3295 13.5687 28.5238 12.8438 28.4323C12.1188 28.3409 11.4579 27.9709 11.001 27.4006C10.544 26.8304 10.327 26.1047 10.3958 25.3773C10.4645 24.6498 10.8137 23.9776 11.3694 23.5031C11.7374 23.2031 20.6249 16.275 33.4569 24.9891C43.5585 31.8586 49.4179 29.6578 49.5116 29.6203C49.9391 29.436 50.4057 29.3608 50.8694 29.4012C51.3332 29.4417 51.7797 29.5967 52.1688 29.8522C52.5579 30.1078 52.8775 30.4559 53.0989 30.8654C53.3203 31.2749 53.4366 31.7329 53.4374 32.1984V32.2031Z" fill="#DE0E0E"/>
</svg>