<svg xmlns="http://www.w3.org/2000/svg" width="60" height="60" viewBox="0 0 60 60" fill="none">
  <path d="M27.5 47.5C23.3333 47.5 19.7917 46.0417 16.875 43.125C13.9583 40.2083 12.5 36.6667 12.5 32.5C12.5 32.0417 12.5208 31.5833 12.5625 31.125C12.6042 30.6667 12.6667 30.2083 12.75 29.75C12.5417 29.8333 12.2917 29.8958 12 29.9375C11.7083 29.9792 11.4583 30 11.25 30C9.5 30 8.02083 29.3958 6.8125 28.1875C5.60417 26.9792 5 25.5 5 23.75C5 22 5.57333 20.5208 6.72 19.3125C7.86667 18.1042 9.31417 17.5 11.0625 17.5C12.4375 17.5 13.6775 17.885 14.7825 18.655C15.8875 19.425 16.6683 20.415 17.125 21.625C18.5 20.375 20.0733 19.375 21.845 18.625C23.6167 17.875 25.5017 17.5 27.5 17.5H52.5C53.2083 17.5 53.8025 17.74 54.2825 18.22C54.7625 18.7 55.0017 19.2933 55 20V25C55 25.7083 54.76 26.3025 54.28 26.7825C53.8 27.2625 53.2067 27.5017 52.5 27.5H42.5V32.5C42.5 36.6667 41.0417 40.2083 38.125 43.125C35.2083 46.0417 31.6667 47.5 27.5 47.5ZM11.25 26.25C11.9583 26.25 12.5525 26.01 13.0325 25.53C13.5125 25.05 13.7517 24.4567 13.75 23.75C13.75 23.0417 13.51 22.4475 13.03 21.9675C12.55 21.4875 11.9567 21.2483 11.25 21.25C10.5417 21.25 9.9475 21.49 9.4675 21.97C8.9875 22.45 8.74833 23.0433 8.75 23.75C8.75 24.4583 8.99 25.0525 9.47 25.5325C9.95 26.0125 10.5433 26.2517 11.25 26.25ZM27.5 41.25C29.9167 41.25 31.9792 40.3958 33.6875 38.6875C35.3958 36.9792 36.25 34.9167 36.25 32.5C36.25 30.0833 35.3958 28.0208 33.6875 26.3125C31.9792 24.6042 29.9167 23.75 27.5 23.75C25.0833 23.75 23.0208 24.6042 21.3125 26.3125C19.6042 28.0208 18.75 30.0833 18.75 32.5C18.75 34.9167 19.6042 36.9792 21.3125 38.6875C23.0208 40.3958 25.0833 41.25 27.5 41.25ZM27.5 37.5C28.875 37.5 30.0525 37.01 31.0325 36.03C32.0125 35.05 32.5017 33.8733 32.5 32.5C32.5 31.125 32.01 29.9475 31.03 28.9675C30.05 27.9875 28.8733 27.4983 27.5 27.5C26.125 27.5 24.9475 27.99 23.9675 28.97C22.9875 29.95 22.4983 31.1267 22.5 32.5C22.5 33.875 22.99 35.0525 23.97 36.0325C24.95 37.0125 26.1267 37.5017 27.5 37.5Z" fill="white"/>
</svg>